<svg xmlns="http://www.w3.org/2000/svg" viewBox="20 50.155841308283726 535 474.6851915708395"> <svg xmlns="http://www.w3.org/2000/svg" xmlns:xlink="http://www.w3.org/1999/xlink" version="1.1" id="Layer_1" x="199.0627563003177" y="120.15584130828373" viewBox="232.7764129638672 90.87998962402344 545.8770751953125 818.2698974609375" xml:space="preserve" height="265.13161451310054" width="176.87448739936463" preserveAspectRatio="xMinYMin" enable-background="new 0 0 1000 1000" style="overflow: visible;"><path class="st0" d="M756.05,776.25c-11.92-18.38-24.13-36.98-35.56-54.31c-10.69-16.22-34.63-52.2-55.77-83.96   c-16.17-24.29-30.13-45.27-32.73-49.24c-3.03-4.64-6.08-9.47-9.03-14.13c-6.25-9.85-12.73-20.06-19.71-29.89   c-6.1-8.56-6.89-10.82-6.95-20.09c-0.12-12.42-0.27-25.93-0.5-42.54c-0.15-11.17-0.29-22.32-0.46-33.48   c-0.46-0.69-0.75-1.52-0.77-2.55c-0.07-15.47-1.3-30.86-2.52-46.24H411.67c0.15,10.41,0.5,20.83,0.67,31.26   c0.77,1.73,0.82,4.37,0.69,10.91c-0.03,1.8-0.07,3.68-0.09,5.65c-0.05,12.18-0.02,24.36,0,36.53l0.02,3.08   c0,4.26,0.03,8.51,0.07,12.76c0.05,9.54,0.12,19.41-0.09,28.93c-0.17,6.89-3.08,11.7-9.13,21.05l-1.68,2.57   c-16.82,26.22-34.08,52.84-50.78,78.58c-10.29,15.86-20.57,31.7-30.83,47.6c-7.43,11.49-14.83,22.98-22.25,34.48   c-6.41,9.93-12.81,19.87-19.23,29.8c-3.27,5.1-6.71,10.16-10.36,15.52c-10.4,15.33-21.15,31.17-28.93,48.66   c-10.09,22.66-9.16,50.11,2.33,69.9c8.99,15.45,25.97,21.87,37.95,25.37c15.19,4.44,32.73,6.68,52.19,6.68   c1.87,0,3.75-0.02,5.65-0.07l0.02-0.82h42.41c13.99,0,27.99,0.02,41.98,0.02c27.54,0.03,56.04,0.07,84.08-0.02   c26.07-0.09,52.6-0.03,78.27,0.02c24.32,0.03,49.48,0.07,74.25,0.02c2.06-0.02,4.16,0,6.35,0c20.4,0.05,45.78,0.12,67.55-7.18   c29.66-9.95,45.52-31.31,45.87-61.78v-0.02C778.88,813.62,767.61,794.06,756.05,776.25z M665.31,871.6c-2.24,0-4.44-0.02-6.53,0   c-24.7,0.05-49.81,0.02-74.11-0.03c-25.69-0.03-52.27-0.09-78.43-0.02c-27.97,0.09-56.42,0.07-83.94,0.03   c-14.01-0.02-28-0.03-42.01-0.03h-51.47l-0.03,0.87c-14.56-0.22-27.49-1.97-38.52-5.19c-11.42-3.32-15.26-6.51-16.48-8.58   c-5.6-9.64-5.82-24.66-0.53-36.55c6.44-14.52,16.27-28.98,25.76-42.97c3.6-5.31,7.31-10.77,10.82-16.22   c6.44-9.95,12.85-19.88,19.23-29.84c7.42-11.48,14.83-22.97,22.25-34.44c10.24-15.86,20.5-31.7,30.8-47.55   c16.72-25.76,34.02-52.41,50.89-78.73l1.59-2.45c6.83-10.57,14.58-22.56,14.99-40.1c0.26-10.11,0.17-20.24,0.1-30.08   c-0.03-4.18-0.07-8.36-0.07-12.54l-0.02-3.1c-0.02-12.11-0.03-24.22,0-36.33c0.02-1.75,0.05-3.41,0.09-5   c0.07-2.93,0.14-6.05-0.03-9.3h108.69c0.02,1.42,0.07,2.69,0.1,3.79c0.03,0.99,0.09,1.97,0.09,2.91   c0.22,14.13,0.41,28.28,0.6,42.41c0.22,16.56,0.38,30.02,0.48,42.39c0.17,18.69,4.57,28.11,13.75,41.02   c6.42,9.04,12.62,18.82,18.62,28.28c3.01,4.74,6.13,9.68,9.28,14.51c2.71,4.14,16.7,25.18,32.94,49.55   c20.04,30.14,45.01,67.64,55.65,83.79c11.39,17.3,23.57,35.81,35.42,54.11c10.91,16.82,16.82,28.64,16.7,42.73   C741.65,866.87,717.02,871.7,665.31,871.6z" style="fill: #3c78bd;"></path><path class="st1" d="M624.43,674.86c-2.81-0.58-5.64-1.15-8.48-1.68c-46.5-8.61-92.52-7.96-136.55,11.1    c-35.81,15.51-57.78,42.29-59.91,82.73c-0.23,4.5,0.72,9.05,1.3,15.64c40.75-36.15,83.68-62.76,137.68-66.74    c-16.6,9.67-33.4,17.85-48.4,28.55c-26.63,19.02-47.45,43.85-64.96,71.4c-6.29,9.89-5.92,11.34,2.5,19.79    c8.99,9.03,20.06,15.47,32.07,19.3c-15.62,0.03-31.23,0-46.51-0.01c-12.31-0.01-24.63-0.03-36.94-0.03h-45.25l-0.03,0.77    c-12.81-0.2-24.17-1.74-33.87-4.56c-10.05-2.93-13.42-5.72-14.49-7.55c-4.93-8.48-5.12-21.69-0.48-32.14    c5.65-12.74,14.29-25.44,22.63-37.74c0-0.01,0.01-0.03,0.03-0.04c3.15-4.66,6.43-9.47,9.52-14.26    c5.65-8.75,11.29-17.48,16.91-26.23c6.52-10.09,13.03-20.2,19.55-30.29c9.01-13.94,18.04-27.86,27.09-41.79    c10.84-16.72,21.97-33.87,33.02-51.01c37.81-48.47,67.57,13.75,90.84,19.36c19.22,4.63,36.31-15.3,49.27-35.94    c3.89,5.8,7.68,11.78,11.38,17.62c2.65,4.18,5.39,8.5,8.16,12.76c2.38,3.64,14.68,22.14,28.95,43.57    C621.1,669.85,622.76,672.33,624.43,674.86z" style="fill: #318742;"></path><path class="st1" d="M714.24,826.23c-0.27,24.56-21.93,28.81-67.39,28.72c-1.98,0-3.9-0.01-5.73,0    c-21.72,0.04-43.81,0.01-65.16-0.03c-13.12-0.01-26.5-0.04-39.94-0.04c12.52-3.94,24.23-10.58,33.89-19.89    c17.42-16.76,28.5-37.25,37.15-59.35c5.9-15.07,11.61-30.23,17.58-45.26c0.99-2.49,6.81-23.45,11-38.7    c13.23,19.9,26.16,39.37,32.78,49.42c6.91,10.49,14.16,21.5,21.41,32.59c3.25,4.99,6.51,9.98,9.74,14.97    C709.17,803.45,714.35,813.85,714.24,826.23z" style="fill: #318742;"></path><path class="st2" d="M547,522.47c0,6.51-5.28,11.79-11.79,11.79s-11.79-5.28-11.79-11.79c0-6.51,5.28-11.79,11.79-11.79    S547,515.96,547,522.47z" style="fill: #a2c1e0;"></path><path class="st2" d="M506,490.67c0,9.07-7.35,16.42-16.42,16.42c-9.07,0-16.42-7.35-16.42-16.42c0-9.07,7.35-16.42,16.42-16.42    C498.65,474.25,506,481.6,506,490.67z" style="fill: #a2c1e0;"></path><path class="st2" d="M508.2,563.25c0,5.46-4.42,9.88-9.88,9.88c-5.46,0-9.88-4.43-9.88-9.88c0-5.46,4.43-9.88,9.88-9.88    C503.78,553.37,508.2,557.8,508.2,563.25z" style="fill: #a2c1e0;"></path><path class="st2" d="M554.62,244.85c0,9.5-7.7,17.21-17.21,17.21c-9.5,0-17.21-7.7-17.21-17.21s7.71-17.21,17.21-17.21    C546.91,227.64,554.62,235.34,554.62,244.85z" style="fill: #a2c1e0;"></path><path class="st2" d="M554.15,112.14c0,11.74-9.52,21.26-21.26,21.26c-11.74,0-21.26-9.52-21.26-21.26    c0-11.74,9.52-21.26,21.26-21.26C544.63,90.88,554.15,100.4,554.15,112.14z" style="fill: #a2c1e0;"></path><path class="st2" d="M453.16,283.32c0,11.74-9.52,21.26-21.26,21.26c-11.74,0-21.26-9.52-21.26-21.26    c0-11.74,9.52-21.26,21.26-21.26C443.63,262.06,453.16,271.58,453.16,283.32z" style="fill: #a2c1e0;"></path><ellipse transform="matrix(0.1288 -0.9917 0.9917 0.1288 82.0511 810.208)" class="st2" cx="502.16" cy="358.4" rx="14.42" ry="14.42" style="fill: #a2c1e0;"></ellipse><ellipse transform="matrix(0.4585 -0.8887 0.8887 0.4585 101.9031 486.7336)" class="st2" cx="450.37" cy="159.74" rx="14.42" ry="14.42" style="fill: #a2c1e0;"></ellipse></svg> <svg y="437.1610325739474" viewBox="2.490000009536743 5.010000228881836 395 17.68000030517578" x="90" height="17.68000030517578" width="395" style="overflow: visible;"><g fill="#318742" fill-opacity="1" style=""><path d="M3.95 5.25L3.95 22.46L2.49 22.46L2.49 5.25L3.95 5.25ZM14.38 5.25L16.31 5.25L22.65 20.44L29.03 5.25L30.96 5.25L30.96 22.46L29.51 22.46L29.51 14.96L29.63 7.28L23.22 22.46L22.10 22.46L15.72 7.34L15.83 14.92L15.83 22.46L14.38 22.46L14.38 5.25ZM46.92 15.45L42.54 15.45L42.54 22.46L41.09 22.46L41.09 5.25L46.95 5.25Q49.64 5.25 51.19 6.62Q52.74 7.99 52.74 10.39L52.74 10.39Q52.74 12.81 51.25 14.13Q49.75 15.45 46.92 15.45L46.92 15.45ZM42.54 6.49L42.54 14.22L46.95 14.22Q49.07 14.22 50.18 13.21Q51.29 12.21 51.29 10.41L51.29 10.41Q51.29 8.63 50.19 7.57Q49.08 6.51 47.05 6.49L47.05 6.49L42.54 6.49ZM74.48 12.73L74.48 14.79Q74.48 17.16 73.66 18.96Q72.83 20.76 71.31 21.73Q69.78 22.69 67.79 22.69L67.79 22.69Q64.77 22.69 62.92 20.54Q61.06 18.38 61.06 14.72L61.06 14.72L61.06 12.94Q61.06 10.59 61.89 8.78Q62.73 6.96 64.25 5.99Q65.78 5.01 67.76 5.01Q69.75 5.01 71.27 5.97Q72.79 6.93 73.61 8.68Q74.44 10.43 74.48 12.73L74.48 12.73ZM73.02 14.74L73.02 12.92Q73.02 9.81 71.62 8.05Q70.21 6.29 67.76 6.29L67.76 6.29Q65.36 6.29 63.94 8.06Q62.52 9.82 62.52 12.99L62.52 12.99L62.52 14.79Q62.52 17.85 63.93 19.64Q65.35 21.43 67.79 21.43L67.79 21.43Q70.26 21.43 71.64 19.66Q73.02 17.90 73.02 14.74L73.02 14.74ZM93.64 18.23L93.64 18.23Q93.64 16.80 92.64 15.96Q91.64 15.13 88.96 14.38Q86.29 13.63 85.06 12.74L85.06 12.74Q83.31 11.49 83.31 9.46L83.31 9.46Q83.31 7.48 84.94 6.25Q86.56 5.01 89.09 5.01L89.09 5.01Q90.81 5.01 92.16 5.67Q93.51 6.34 94.26 7.52Q95.00 8.70 95.00 10.15L95.00 10.15L93.54 10.15Q93.54 8.39 92.33 7.32Q91.13 6.25 89.09 6.25L89.09 6.25Q87.12 6.25 85.95 7.13Q84.78 8.01 84.78 9.43L84.78 9.43Q84.78 10.74 85.83 11.57Q86.88 12.40 89.20 13.03Q91.52 13.66 92.71 14.34Q93.90 15.02 94.51 15.97Q95.11 16.91 95.11 18.20L95.11 18.20Q95.11 20.24 93.49 21.47Q91.86 22.69 89.20 22.69L89.20 22.69Q87.38 22.69 85.86 22.04Q84.34 21.39 83.56 20.22Q82.77 19.05 82.77 17.54L82.77 17.54L84.22 17.54Q84.22 19.36 85.58 20.41Q86.94 21.47 89.20 21.47L89.20 21.47Q91.21 21.47 92.43 20.58Q93.64 19.69 93.64 18.23ZM113.75 18.23L113.75 18.23Q113.75 16.80 112.74 15.96Q111.74 15.13 109.07 14.38Q106.39 13.63 105.17 12.74L105.17 12.74Q103.42 11.49 103.42 9.46L103.42 9.46Q103.42 7.48 105.04 6.25Q106.67 5.01 109.20 5.01L109.20 5.01Q110.91 5.01 112.26 5.67Q113.62 6.34 114.36 7.52Q115.11 8.70 115.11 10.15L115.11 10.15L113.64 10.15Q113.64 8.39 112.43 7.32Q111.23 6.25 109.20 6.25L109.20 6.25Q107.22 6.25 106.05 7.13Q104.88 8.01 104.88 9.43L104.88 9.43Q104.88 10.74 105.93 11.57Q106.99 12.40 109.30 13.03Q111.62 13.66 112.81 14.34Q114.01 15.02 114.61 15.97Q115.21 16.91 115.21 18.20L115.21 18.20Q115.21 20.24 113.59 21.47Q111.96 22.69 109.30 22.69L109.30 22.69Q107.48 22.69 105.96 22.04Q104.44 21.39 103.66 20.22Q102.87 19.05 102.87 17.54L102.87 17.54L104.33 17.54Q104.33 19.36 105.69 20.41Q107.04 21.47 109.30 21.47L109.30 21.47Q111.31 21.47 112.53 20.58Q113.75 19.69 113.75 18.23ZM125.88 5.25L125.88 22.46L124.43 22.46L124.43 5.25L125.88 5.25ZM142.07 22.46L136.31 22.46L136.31 5.25L141.40 5.25Q144.16 5.25 145.59 6.39Q147.02 7.53 147.02 9.75L147.02 9.75Q147.02 11.09 146.30 12.07Q145.57 13.06 144.30 13.49L144.30 13.49Q145.81 13.82 146.72 14.96Q147.64 16.11 147.64 17.61L147.64 17.61Q147.64 19.89 146.17 21.18Q144.69 22.46 142.07 22.46L142.07 22.46ZM142.25 14.18L137.77 14.18L137.77 21.23L142.13 21.23Q144.00 21.23 145.09 20.28Q146.18 19.33 146.18 17.64L146.18 17.64Q146.18 16.04 145.14 15.11Q144.09 14.18 142.25 14.18L142.25 14.18ZM137.77 6.49L137.77 12.97L141.74 12.97Q143.56 12.93 144.56 12.11Q145.56 11.29 145.56 9.72L145.56 9.72Q145.56 8.06 144.52 7.28Q143.49 6.49 141.40 6.49L141.40 6.49L137.77 6.49ZM158.38 5.25L158.38 21.23L166.88 21.23L166.88 22.46L156.91 22.46L156.91 5.25L158.38 5.25ZM184.93 12.98L184.93 14.21L176.88 14.21L176.88 21.23L186.14 21.23L186.14 22.46L175.43 22.46L175.43 5.25L186.08 5.25L186.08 6.49L176.88 6.49L176.88 12.98L184.93 12.98ZM208.39 5.25L208.39 22.46L206.93 22.46L206.93 5.25L208.39 5.25ZM228.56 18.23L228.56 18.23Q228.56 16.80 227.55 15.96Q226.55 15.13 223.88 14.38Q221.21 13.63 219.98 12.74L219.98 12.74Q218.23 11.49 218.23 9.46L218.23 9.46Q218.23 7.48 219.85 6.25Q221.48 5.01 224.01 5.01L224.01 5.01Q225.72 5.01 227.08 5.67Q228.43 6.34 229.17 7.52Q229.92 8.70 229.92 10.15L229.92 10.15L228.45 10.15Q228.45 8.39 227.25 7.32Q226.04 6.25 224.01 6.25L224.01 6.25Q222.03 6.25 220.86 7.13Q219.69 8.01 219.69 9.43L219.69 9.43Q219.69 10.74 220.75 11.57Q221.80 12.40 224.12 13.03Q226.43 13.66 227.63 14.34Q228.82 15.02 229.42 15.97Q230.03 16.91 230.03 18.20L230.03 18.20Q230.03 20.24 228.40 21.47Q226.77 22.69 224.12 22.69L224.12 22.69Q222.29 22.69 220.78 22.04Q219.26 21.39 218.47 20.22Q217.68 19.05 217.68 17.54L217.68 17.54L219.14 17.54Q219.14 19.36 220.50 20.41Q221.86 21.47 224.12 21.47L224.12 21.47Q226.12 21.47 227.34 20.58Q228.56 19.69 228.56 18.23ZM263.38 5.25L263.38 22.46L261.93 22.46L252.04 7.73L252.04 22.46L250.57 22.46L250.57 5.25L252.04 5.25L261.94 19.99L261.94 5.25L263.38 5.25ZM286.24 12.73L286.24 14.79Q286.24 17.16 285.42 18.96Q284.60 20.76 283.07 21.73Q281.55 22.69 279.55 22.69L279.55 22.69Q276.54 22.69 274.68 20.54Q272.82 18.38 272.82 14.72L272.82 14.72L272.82 12.94Q272.82 10.59 273.66 8.78Q274.49 6.96 276.02 5.99Q277.54 5.01 279.53 5.01Q281.51 5.01 283.03 5.97Q284.55 6.93 285.38 8.68Q286.20 10.43 286.24 12.73L286.24 12.73ZM284.79 14.74L284.79 12.92Q284.79 9.81 283.38 8.05Q281.97 6.29 279.53 6.29L279.53 6.29Q277.13 6.29 275.70 8.06Q274.28 9.82 274.28 12.99L274.28 12.99L274.28 14.79Q274.28 17.85 275.70 19.64Q277.11 21.43 279.55 21.43L279.55 21.43Q282.02 21.43 283.40 19.66Q284.79 17.90 284.79 14.74L284.79 14.74ZM307.03 5.25L307.03 6.49L301.13 6.49L301.13 22.46L299.68 22.46L299.68 6.49L293.79 6.49L293.79 5.25L307.03 5.25ZM328.32 5.25L328.32 22.46L326.86 22.46L326.86 14.21L317.02 14.21L317.02 22.46L315.57 22.46L315.57 5.25L317.02 5.25L317.02 12.98L326.86 12.98L326.86 5.25L328.32 5.25ZM340.23 5.25L340.23 22.46L338.78 22.46L338.78 5.25L340.23 5.25ZM363.48 5.25L363.48 22.46L362.02 22.46L352.13 7.73L352.13 22.46L350.67 22.46L350.67 5.25L352.13 5.25L362.04 19.99L362.04 5.25L363.48 5.25ZM386.04 14.29L386.04 20.41Q385.28 21.49 383.67 22.09Q382.06 22.69 380.06 22.69L380.06 22.69Q378.04 22.69 376.46 21.73Q374.89 20.76 374.03 18.98Q373.17 17.21 373.15 14.92L373.15 14.92L373.15 12.74Q373.15 9.16 374.96 7.09Q376.77 5.01 379.82 5.01L379.82 5.01Q382.48 5.01 384.10 6.37Q385.72 7.72 386.03 10.09L386.03 10.09L384.57 10.09Q384.25 8.20 383.03 7.23Q381.81 6.25 379.83 6.25L379.83 6.25Q377.42 6.25 376.02 7.97Q374.61 9.68 374.61 12.80L374.61 12.80L374.61 14.83Q374.61 16.80 375.28 18.30Q375.94 19.81 377.19 20.64Q378.44 21.47 380.06 21.47L380.06 21.47Q381.94 21.47 383.28 20.87L383.28 20.87Q384.16 20.48 384.58 19.96L384.58 19.96L384.58 15.52L379.96 15.52L379.96 14.29L386.04 14.29ZM395.47 21.61L395.47 21.61Q395.47 21.19 395.73 20.90Q396.00 20.61 396.47 20.61Q396.94 20.61 397.22 20.90Q397.49 21.19 397.49 21.61Q397.49 22.02 397.22 22.29Q396.94 22.55 396.47 22.55Q396.00 22.55 395.73 22.29Q395.47 22.02 395.47 21.61Z" transform="translate(0, 0)"></path></g></svg> <svg y="389.8984404216121" viewBox="0.9300000667572021 -0.3700000047683716 346.3500061035156 41.13999938964844" x="114.3249878016968" height="41.13999938964844" width="346.3500061035156" style="overflow: visible;"><g fill="#3c78bd" fill-opacity="1" style=""><path d="M12.33 40.03L12.33 7.16L0.93 7.16L0.93 0.62L32.80 0.62L32.80 7.16L20.54 7.16L20.54 40.03L12.33 40.03ZM59.70 30.69L59.70 30.69Q63.18 17.93 69.03 0.62L69.03 0.62L80.86 0.62L80.86 40.03L72.64 40.03L72.64 8.03Q69.72 20.67 63.06 40.03L63.06 40.03L56.27 40.03Q49.24 18.67 46.75 8.34L46.75 8.34L46.75 40.03L38.72 40.03L38.72 0.62L50.05 0.62Q55.90 16.56 59.70 30.69ZM130.72 30.69L133.90 35.61Q128.73 40.77 121.76 40.77L121.76 40.77Q111.74 40.77 106.82 33.30L106.82 33.30Q103.27 27.95 103.27 20.73L103.27 20.73Q103.27 11.33 108.13 5.60L108.13 5.60Q112.92-0.12 121.45-0.12L121.45-0.12Q127.42-0.12 133.40 4.92L133.40 4.92L130.22 10.08Q125.74 6.85 122.07 6.85L122.07 6.85Q116.96 6.85 114.16 11.14L114.16 11.14Q111.74 14.82 111.74 20.73L111.74 20.73Q111.74 25.96 114.60 29.69L114.60 29.69Q117.65 33.61 122.75 33.61L122.75 33.61Q126.12 33.61 130.72 30.69L130.72 30.69ZM140.62 40.03L140.62 4.17L148.46-0.12L148.46 15.13Q149.46 13.20 152.57 11.83L152.57 11.83Q154.62 10.96 156.43 10.96L156.43 10.96Q161.85 10.96 164.30 13.91Q166.76 16.87 166.76 23.41L166.76 23.41L166.76 40.03L158.92 40.03L158.92 23.72Q158.92 17.62 153.69 17.62L153.69 17.62Q149.89 17.62 148.46 19.73L148.46 19.73L148.46 40.03L140.62 40.03ZM201.06 25.58L201.06 28.45L181.64 28.45Q181.89 31.31 183.97 33.21Q186.06 35.11 188.92 35.11L188.92 35.11Q192.97 35.11 197.39 32.62L197.39 32.62L199.38 36.79Q194.90 40.77 188.18 40.77L188.18 40.77Q180.96 40.77 176.91 36.66L176.91 36.66Q173.05 32.80 173.05 26.02L173.05 26.02Q173.05 19.36 177.41 15.00L177.41 15.00Q181.33 11.02 187.37 11.02L187.37 11.02Q194.09 11.02 197.83 15.56L197.83 15.56Q201.06 19.42 201.06 25.58L201.06 25.58ZM181.20 22.66L181.20 22.66L193.22 22.66Q192.91 16.56 187.31 16.56L187.31 16.56Q181.89 16.56 181.20 22.66ZM214.88 14.50L215.19 14.50Q218.68 11.02 223.91 11.02L223.91 11.02Q227.52 11.02 230.29 12.54Q233.06 14.07 234.12 16.62L234.12 16.62Q235.49 14.13 238.38 12.57Q241.27 11.02 244.70 11.02L244.70 11.02Q254.66 11.02 254.66 23.09L254.66 23.09L254.66 40.03L246.75 40.03L246.75 25.21Q246.75 21.04 245.54 19.33Q244.32 17.62 241.46 17.62L241.46 17.62Q237.35 17.62 234.80 20.85L234.80 20.85L234.80 40.03L226.96 40.03L226.96 24.34Q226.96 20.67 225.65 19.14Q224.34 17.62 221.17 17.62L221.17 17.62Q219.30 17.62 217.65 18.18Q216.00 18.74 215.50 19.55L215.50 19.55L215.50 40.03L207.66 40.03L207.66 11.76L214.32 11.76L214.88 14.50ZM262.50 11.76L270.41 11.76L270.41 40.03L262.50 40.03L262.50 11.76ZM261.57 4.54L261.57 4.54Q261.57 2.55 262.97 1.09Q264.37-0.37 266.30-0.37L266.30-0.37Q268.35-0.37 269.82 1.06Q271.28 2.49 271.28 4.54L271.28 4.54Q271.28 6.72 269.88 8.09Q268.48 9.46 266.30 9.46L266.30 9.46Q264.24 9.46 262.91 8.06Q261.57 6.66 261.57 4.54ZM299.54 32.12L302.22 36.42Q297.80 40.77 291.76 40.77L291.76 40.77Q284.54 40.77 280.30 36.17L280.30 36.17Q276.63 32.12 276.63 26.02L276.63 26.02Q276.63 19.17 281.36 14.82L281.36 14.82Q285.47 11.02 291.38 11.02L291.38 11.02Q297.92 11.02 301.90 15.13L301.90 15.13L299.54 19.36Q296.36 16.56 292.63 16.56L292.63 16.56Q289.14 16.56 286.90 19.27Q284.66 21.97 284.66 26.21L284.66 26.21Q284.66 30.13 286.87 32.65Q289.08 35.17 292.50 35.17L292.50 35.17Q296.61 35.17 299.54 32.12L299.54 32.12ZM330.97 23.47L330.97 40.03L324.69 40.03L324.06 37.35Q319.96 40.77 315.72 40.77L315.72 40.77Q306.32 40.77 306.32 31.62L306.32 31.62Q306.32 27.08 310.25 24.53L310.25 24.53Q314.23 21.91 322.01 21.91L322.01 21.91L323.32 21.91L323.32 21.79Q323.32 19.11 322.20 18.11Q321.08 17.12 318.15 17.12L318.15 17.12Q314.04 17.12 310.62 19.73L310.62 19.73Q309.50 17.68 308.50 15.69L308.50 15.69Q312.05 12.95 314.70 11.98Q317.34 11.02 321.01 11.02L321.01 11.02Q330.97 11.02 330.97 23.47L330.97 23.47ZM323.07 30.94L323.07 26.70L322.13 26.70Q318.59 26.70 316.41 27.95Q314.23 29.19 314.23 31.25L314.23 31.25Q314.23 35.11 317.59 35.11L317.59 35.11Q319.64 35.11 321.20 33.93Q322.76 32.74 323.07 30.94L323.07 30.94ZM339.44 3.98L347.28-0.12L347.28 40.03L339.44 40.03L339.44 3.98Z" transform="translate(0, 0)"></path></g></svg></svg>